<?xml version="1.0" encoding="UTF-8" standalone="no"?>
<!DOCTYPE svg PUBLIC "-//W3C//DTD SVG 1.1//EN"
 "http://www.w3.org/Graphics/SVG/1.1/DTD/svg11.dtd">
<!-- Generated by graphviz version 9.0.0 (20230911.1827)
 -->
<!-- Title: Tree Pages: 1 -->
<svg width="1359pt" height="588pt"
 viewBox="0.00 0.00 1359.25 588.00" xmlns="http://www.w3.org/2000/svg" xmlns:xlink="http://www.w3.org/1999/xlink">
<g id="graph0" class="graph" transform="scale(1 1) rotate(0) translate(4 584)">
<title>Tree</title>
<polygon fill="white" stroke="none" points="-4,4 -4,-584 1355.25,-584 1355.25,4 -4,4"/>
<!-- 0 -->
<g id="node1" class="node">
<title>0</title>
<polygon fill="#e8f4fc" stroke="black" points="869.62,-580 748.62,-580 748.62,-489.5 869.62,-489.5 869.62,-580"/>
<text text-anchor="middle" x="809.12" y="-562.7" font-family="Helvetica,sans-Serif" font-size="14.00">thall &lt;= 0.833</text>
<text text-anchor="middle" x="809.12" y="-546.2" font-family="Helvetica,sans-Serif" font-size="14.00">gini = 0.498</text>
<text text-anchor="middle" x="809.12" y="-529.7" font-family="Helvetica,sans-Serif" font-size="14.00">samples = 194</text>
<text text-anchor="middle" x="809.12" y="-513.2" font-family="Helvetica,sans-Serif" font-size="14.00">value = [91, 103]</text>
<text text-anchor="middle" x="809.12" y="-496.7" font-family="Helvetica,sans-Serif" font-size="14.00">class = 1</text>
</g>
<!-- 1 -->
<g id="node2" class="node">
<title>1</title>
<polygon fill="#7fbfee" stroke="black" points="745.5,-453.5 632.75,-453.5 632.75,-363 745.5,-363 745.5,-453.5"/>
<text text-anchor="middle" x="689.12" y="-436.2" font-family="Helvetica,sans-Serif" font-size="14.00">caa &lt;= 0.125</text>
<text text-anchor="middle" x="689.12" y="-419.7" font-family="Helvetica,sans-Serif" font-size="14.00">gini = 0.385</text>
<text text-anchor="middle" x="689.12" y="-403.2" font-family="Helvetica,sans-Serif" font-size="14.00">samples = 123</text>
<text text-anchor="middle" x="689.12" y="-386.7" font-family="Helvetica,sans-Serif" font-size="14.00">value = [32, 91]</text>
<text text-anchor="middle" x="689.12" y="-370.2" font-family="Helvetica,sans-Serif" font-size="14.00">class = 1</text>
</g>
<!-- 0&#45;&gt;1 -->
<g id="edge1" class="edge">
<title>0&#45;&gt;1</title>
<path fill="none" stroke="black" d="M766.14,-489.15C757.7,-480.39 748.76,-471.12 740.09,-462.12"/>
<polygon fill="black" stroke="black" points="742.72,-459.81 733.26,-455.04 737.68,-464.67 742.72,-459.81"/>
<text text-anchor="middle" x="731.75" y="-473.9" font-family="Helvetica,sans-Serif" font-size="14.00">True</text>
</g>
<!-- 16 -->
<g id="node17" class="node">
<title>16</title>
<polygon fill="#ea9b61" stroke="black" points="983.5,-453.5 870.75,-453.5 870.75,-363 983.5,-363 983.5,-453.5"/>
<text text-anchor="middle" x="927.12" y="-436.2" font-family="Helvetica,sans-Serif" font-size="14.00">cp &lt;= 0.167</text>
<text text-anchor="middle" x="927.12" y="-419.7" font-family="Helvetica,sans-Serif" font-size="14.00">gini = 0.281</text>
<text text-anchor="middle" x="927.12" y="-403.2" font-family="Helvetica,sans-Serif" font-size="14.00">samples = 71</text>
<text text-anchor="middle" x="927.12" y="-386.7" font-family="Helvetica,sans-Serif" font-size="14.00">value = [59, 12]</text>
<text text-anchor="middle" x="927.12" y="-370.2" font-family="Helvetica,sans-Serif" font-size="14.00">class = 0</text>
</g>
<!-- 0&#45;&gt;16 -->
<g id="edge16" class="edge">
<title>0&#45;&gt;16</title>
<path fill="none" stroke="black" d="M851.39,-489.15C859.7,-480.39 868.48,-471.12 877.01,-462.12"/>
<polygon fill="black" stroke="black" points="879.38,-464.72 883.71,-455.05 874.3,-459.9 879.38,-464.72"/>
<text text-anchor="middle" x="885.43" y="-473.89" font-family="Helvetica,sans-Serif" font-size="14.00">False</text>
</g>
<!-- 2 -->
<g id="node3" class="node">
<title>2</title>
<polygon fill="#51a9e8" stroke="black" points="418.38,-327 289.88,-327 289.88,-236.5 418.38,-236.5 418.38,-327"/>
<text text-anchor="middle" x="354.12" y="-309.7" font-family="Helvetica,sans-Serif" font-size="14.00">thalachh &lt;= 0.683</text>
<text text-anchor="middle" x="354.12" y="-293.2" font-family="Helvetica,sans-Serif" font-size="14.00">gini = 0.191</text>
<text text-anchor="middle" x="354.12" y="-276.7" font-family="Helvetica,sans-Serif" font-size="14.00">samples = 84</text>
<text text-anchor="middle" x="354.12" y="-260.2" font-family="Helvetica,sans-Serif" font-size="14.00">value = [9, 75]</text>
<text text-anchor="middle" x="354.12" y="-243.7" font-family="Helvetica,sans-Serif" font-size="14.00">class = 1</text>
</g>
<!-- 1&#45;&gt;2 -->
<g id="edge2" class="edge">
<title>1&#45;&gt;2</title>
<path fill="none" stroke="black" d="M632.3,-386.13C576.36,-365.34 490.61,-333.47 429.11,-310.62"/>
<polygon fill="black" stroke="black" points="430.7,-307.47 420.11,-307.27 428.26,-314.04 430.7,-307.47"/>
</g>
<!-- 9 -->
<g id="node10" class="node">
<title>9</title>
<polygon fill="#f7d9c3" stroke="black" points="745.5,-327 632.75,-327 632.75,-236.5 745.5,-236.5 745.5,-327"/>
<text text-anchor="middle" x="689.12" y="-309.7" font-family="Helvetica,sans-Serif" font-size="14.00">cp &lt;= 0.167</text>
<text text-anchor="middle" x="689.12" y="-293.2" font-family="Helvetica,sans-Serif" font-size="14.00">gini = 0.484</text>
<text text-anchor="middle" x="689.12" y="-276.7" font-family="Helvetica,sans-Serif" font-size="14.00">samples = 39</text>
<text text-anchor="middle" x="689.12" y="-260.2" font-family="Helvetica,sans-Serif" font-size="14.00">value = [23, 16]</text>
<text text-anchor="middle" x="689.12" y="-243.7" font-family="Helvetica,sans-Serif" font-size="14.00">class = 0</text>
</g>
<!-- 1&#45;&gt;9 -->
<g id="edge9" class="edge">
<title>1&#45;&gt;9</title>
<path fill="none" stroke="black" d="M689.12,-362.65C689.12,-354.97 689.12,-346.89 689.12,-338.94"/>
<polygon fill="black" stroke="black" points="692.63,-338.97 689.13,-328.97 685.63,-338.97 692.63,-338.97"/>
</g>
<!-- 3 -->
<g id="node4" class="node">
<title>3</title>
<polygon fill="#74baed" stroke="black" points="229.62,-200.5 102.62,-200.5 102.62,-110 229.62,-110 229.62,-200.5"/>
<text text-anchor="middle" x="166.12" y="-183.2" font-family="Helvetica,sans-Serif" font-size="14.00">oldpeak &lt;= 0.016</text>
<text text-anchor="middle" x="166.12" y="-166.7" font-family="Helvetica,sans-Serif" font-size="14.00">gini = 0.353</text>
<text text-anchor="middle" x="166.12" y="-150.2" font-family="Helvetica,sans-Serif" font-size="14.00">samples = 35</text>
<text text-anchor="middle" x="166.12" y="-133.7" font-family="Helvetica,sans-Serif" font-size="14.00">value = [8, 27]</text>
<text text-anchor="middle" x="166.12" y="-117.2" font-family="Helvetica,sans-Serif" font-size="14.00">class = 1</text>
</g>
<!-- 2&#45;&gt;3 -->
<g id="edge3" class="edge">
<title>2&#45;&gt;3</title>
<path fill="none" stroke="black" d="M289.43,-237.9C273.36,-227.26 256.02,-215.78 239.56,-204.88"/>
<polygon fill="black" stroke="black" points="241.52,-201.98 231.25,-199.38 237.66,-207.82 241.52,-201.98"/>
</g>
<!-- 6 -->
<g id="node7" class="node">
<title>6</title>
<polygon fill="#3d9fe6" stroke="black" points="406.38,-200.5 301.88,-200.5 301.88,-110 406.38,-110 406.38,-200.5"/>
<text text-anchor="middle" x="354.12" y="-183.2" font-family="Helvetica,sans-Serif" font-size="14.00">chol &lt;= 0.641</text>
<text text-anchor="middle" x="354.12" y="-166.7" font-family="Helvetica,sans-Serif" font-size="14.00">gini = 0.04</text>
<text text-anchor="middle" x="354.12" y="-150.2" font-family="Helvetica,sans-Serif" font-size="14.00">samples = 49</text>
<text text-anchor="middle" x="354.12" y="-133.7" font-family="Helvetica,sans-Serif" font-size="14.00">value = [1, 48]</text>
<text text-anchor="middle" x="354.12" y="-117.2" font-family="Helvetica,sans-Serif" font-size="14.00">class = 1</text>
</g>
<!-- 2&#45;&gt;6 -->
<g id="edge6" class="edge">
<title>2&#45;&gt;6</title>
<path fill="none" stroke="black" d="M354.12,-236.15C354.12,-228.47 354.12,-220.39 354.12,-212.44"/>
<polygon fill="black" stroke="black" points="357.63,-212.47 354.13,-202.47 350.63,-212.47 357.63,-212.47"/>
</g>
<!-- 4 -->
<g id="node5" class="node">
<title>4</title>
<polygon fill="#d7ebfa" stroke="black" points="96.25,-74 0,-74 0,0 96.25,0 96.25,-74"/>
<text text-anchor="middle" x="48.12" y="-56.7" font-family="Helvetica,sans-Serif" font-size="14.00">gini = 0.494</text>
<text text-anchor="middle" x="48.12" y="-40.2" font-family="Helvetica,sans-Serif" font-size="14.00">samples = 9</text>
<text text-anchor="middle" x="48.12" y="-23.7" font-family="Helvetica,sans-Serif" font-size="14.00">value = [4, 5]</text>
<text text-anchor="middle" x="48.12" y="-7.2" font-family="Helvetica,sans-Serif" font-size="14.00">class = 1</text>
</g>
<!-- 3&#45;&gt;4 -->
<g id="edge4" class="edge">
<title>3&#45;&gt;4</title>
<path fill="none" stroke="black" d="M120.84,-109.64C111.78,-100.72 102.27,-91.34 93.22,-82.43"/>
<polygon fill="black" stroke="black" points="95.72,-79.98 86.14,-75.46 90.81,-84.97 95.72,-79.98"/>
</g>
<!-- 5 -->
<g id="node6" class="node">
<title>5</title>
<polygon fill="#5dafea" stroke="black" points="218.38,-74 113.88,-74 113.88,0 218.38,0 218.38,-74"/>
<text text-anchor="middle" x="166.12" y="-56.7" font-family="Helvetica,sans-Serif" font-size="14.00">gini = 0.26</text>
<text text-anchor="middle" x="166.12" y="-40.2" font-family="Helvetica,sans-Serif" font-size="14.00">samples = 26</text>
<text text-anchor="middle" x="166.12" y="-23.7" font-family="Helvetica,sans-Serif" font-size="14.00">value = [4, 22]</text>
<text text-anchor="middle" x="166.12" y="-7.2" font-family="Helvetica,sans-Serif" font-size="14.00">class = 1</text>
</g>
<!-- 3&#45;&gt;5 -->
<g id="edge5" class="edge">
<title>3&#45;&gt;5</title>
<path fill="none" stroke="black" d="M166.12,-109.64C166.12,-101.81 166.12,-93.63 166.12,-85.72"/>
<polygon fill="black" stroke="black" points="169.63,-85.91 166.13,-75.91 162.63,-85.91 169.63,-85.91"/>
</g>
<!-- 7 -->
<g id="node8" class="node">
<title>7</title>
<polygon fill="#399de5" stroke="black" points="341.38,-74 236.88,-74 236.88,0 341.38,0 341.38,-74"/>
<text text-anchor="middle" x="289.12" y="-56.7" font-family="Helvetica,sans-Serif" font-size="14.00">gini = 0.0</text>
<text text-anchor="middle" x="289.12" y="-40.2" font-family="Helvetica,sans-Serif" font-size="14.00">samples = 44</text>
<text text-anchor="middle" x="289.12" y="-23.7" font-family="Helvetica,sans-Serif" font-size="14.00">value = [0, 44]</text>
<text text-anchor="middle" x="289.12" y="-7.2" font-family="Helvetica,sans-Serif" font-size="14.00">class = 1</text>
</g>
<!-- 6&#45;&gt;7 -->
<g id="edge7" class="edge">
<title>6&#45;&gt;7</title>
<path fill="none" stroke="black" d="M329.18,-109.64C324.55,-101.35 319.7,-92.68 315.04,-84.34"/>
<polygon fill="black" stroke="black" points="318.15,-82.73 310.21,-75.71 312.04,-86.15 318.15,-82.73"/>
</g>
<!-- 8 -->
<g id="node9" class="node">
<title>8</title>
<polygon fill="#6ab6ec" stroke="black" points="455.25,-74 359,-74 359,0 455.25,0 455.25,-74"/>
<text text-anchor="middle" x="407.12" y="-56.7" font-family="Helvetica,sans-Serif" font-size="14.00">gini = 0.32</text>
<text text-anchor="middle" x="407.12" y="-40.2" font-family="Helvetica,sans-Serif" font-size="14.00">samples = 5</text>
<text text-anchor="middle" x="407.12" y="-23.7" font-family="Helvetica,sans-Serif" font-size="14.00">value = [1, 4]</text>
<text text-anchor="middle" x="407.12" y="-7.2" font-family="Helvetica,sans-Serif" font-size="14.00">class = 1</text>
</g>
<!-- 6&#45;&gt;8 -->
<g id="edge8" class="edge">
<title>6&#45;&gt;8</title>
<path fill="none" stroke="black" d="M374.46,-109.64C378.2,-101.44 382.11,-92.87 385.87,-84.62"/>
<polygon fill="black" stroke="black" points="388.94,-86.32 389.9,-75.77 382.57,-83.42 388.94,-86.32"/>
</g>
<!-- 10 -->
<g id="node11" class="node">
<title>10</title>
<polygon fill="#e9965a" stroke="black" points="686.38,-200.5 581.88,-200.5 581.88,-110 686.38,-110 686.38,-200.5"/>
<text text-anchor="middle" x="634.12" y="-183.2" font-family="Helvetica,sans-Serif" font-size="14.00">sex &lt;= 0.5</text>
<text text-anchor="middle" x="634.12" y="-166.7" font-family="Helvetica,sans-Serif" font-size="14.00">gini = 0.245</text>
<text text-anchor="middle" x="634.12" y="-150.2" font-family="Helvetica,sans-Serif" font-size="14.00">samples = 21</text>
<text text-anchor="middle" x="634.12" y="-133.7" font-family="Helvetica,sans-Serif" font-size="14.00">value = [18, 3]</text>
<text text-anchor="middle" x="634.12" y="-117.2" font-family="Helvetica,sans-Serif" font-size="14.00">class = 0</text>
</g>
<!-- 9&#45;&gt;10 -->
<g id="edge10" class="edge">
<title>9&#45;&gt;10</title>
<path fill="none" stroke="black" d="M669.42,-236.15C665.87,-228.11 662.13,-219.63 658.46,-211.33"/>
<polygon fill="black" stroke="black" points="661.73,-210.07 654.48,-202.34 655.32,-212.9 661.73,-210.07"/>
</g>
<!-- 13 -->
<g id="node14" class="node">
<title>13</title>
<polygon fill="#85c3ef" stroke="black" points="809.38,-200.5 704.88,-200.5 704.88,-110 809.38,-110 809.38,-200.5"/>
<text text-anchor="middle" x="757.12" y="-183.2" font-family="Helvetica,sans-Serif" font-size="14.00">slp &lt;= 0.75</text>
<text text-anchor="middle" x="757.12" y="-166.7" font-family="Helvetica,sans-Serif" font-size="14.00">gini = 0.401</text>
<text text-anchor="middle" x="757.12" y="-150.2" font-family="Helvetica,sans-Serif" font-size="14.00">samples = 18</text>
<text text-anchor="middle" x="757.12" y="-133.7" font-family="Helvetica,sans-Serif" font-size="14.00">value = [5, 13]</text>
<text text-anchor="middle" x="757.12" y="-117.2" font-family="Helvetica,sans-Serif" font-size="14.00">class = 1</text>
</g>
<!-- 9&#45;&gt;13 -->
<g id="edge13" class="edge">
<title>9&#45;&gt;13</title>
<path fill="none" stroke="black" d="M713.48,-236.15C717.93,-228.02 722.61,-219.45 727.19,-211.05"/>
<polygon fill="black" stroke="black" points="730.26,-212.74 731.98,-202.28 724.12,-209.38 730.26,-212.74"/>
</g>
<!-- 11 -->
<g id="node12" class="node">
<title>11</title>
<polygon fill="#f8e0ce" stroke="black" points="569.25,-74 473,-74 473,0 569.25,0 569.25,-74"/>
<text text-anchor="middle" x="521.12" y="-56.7" font-family="Helvetica,sans-Serif" font-size="14.00">gini = 0.49</text>
<text text-anchor="middle" x="521.12" y="-40.2" font-family="Helvetica,sans-Serif" font-size="14.00">samples = 7</text>
<text text-anchor="middle" x="521.12" y="-23.7" font-family="Helvetica,sans-Serif" font-size="14.00">value = [4, 3]</text>
<text text-anchor="middle" x="521.12" y="-7.2" font-family="Helvetica,sans-Serif" font-size="14.00">class = 0</text>
</g>
<!-- 10&#45;&gt;11 -->
<g id="edge11" class="edge">
<title>10&#45;&gt;11</title>
<path fill="none" stroke="black" d="M590.76,-109.64C582.09,-100.72 572.98,-91.34 564.31,-82.43"/>
<polygon fill="black" stroke="black" points="567.04,-80.21 557.56,-75.48 562.02,-85.09 567.04,-80.21"/>
</g>
<!-- 12 -->
<g id="node13" class="node">
<title>12</title>
<polygon fill="#e58139" stroke="black" points="691.38,-74 586.88,-74 586.88,0 691.38,0 691.38,-74"/>
<text text-anchor="middle" x="639.12" y="-56.7" font-family="Helvetica,sans-Serif" font-size="14.00">gini = 0.0</text>
<text text-anchor="middle" x="639.12" y="-40.2" font-family="Helvetica,sans-Serif" font-size="14.00">samples = 14</text>
<text text-anchor="middle" x="639.12" y="-23.7" font-family="Helvetica,sans-Serif" font-size="14.00">value = [14, 0]</text>
<text text-anchor="middle" x="639.12" y="-7.2" font-family="Helvetica,sans-Serif" font-size="14.00">class = 0</text>
</g>
<!-- 10&#45;&gt;12 -->
<g id="edge12" class="edge">
<title>10&#45;&gt;12</title>
<path fill="none" stroke="black" d="M636.04,-109.64C636.38,-101.81 636.73,-93.63 637.07,-85.72"/>
<polygon fill="black" stroke="black" points="640.56,-86.05 637.49,-75.91 633.57,-85.75 640.56,-86.05"/>
</g>
<!-- 14 -->
<g id="node15" class="node">
<title>14</title>
<polygon fill="#f8e0ce" stroke="black" points="805.25,-74 709,-74 709,0 805.25,0 805.25,-74"/>
<text text-anchor="middle" x="757.12" y="-56.7" font-family="Helvetica,sans-Serif" font-size="14.00">gini = 0.49</text>
<text text-anchor="middle" x="757.12" y="-40.2" font-family="Helvetica,sans-Serif" font-size="14.00">samples = 7</text>
<text text-anchor="middle" x="757.12" y="-23.7" font-family="Helvetica,sans-Serif" font-size="14.00">value = [4, 3]</text>
<text text-anchor="middle" x="757.12" y="-7.2" font-family="Helvetica,sans-Serif" font-size="14.00">class = 0</text>
</g>
<!-- 13&#45;&gt;14 -->
<g id="edge14" class="edge">
<title>13&#45;&gt;14</title>
<path fill="none" stroke="black" d="M757.12,-109.64C757.12,-101.81 757.12,-93.63 757.12,-85.72"/>
<polygon fill="black" stroke="black" points="760.63,-85.91 757.13,-75.91 753.63,-85.91 760.63,-85.91"/>
</g>
<!-- 15 -->
<g id="node16" class="node">
<title>15</title>
<polygon fill="#4da7e8" stroke="black" points="927.38,-74 822.88,-74 822.88,0 927.38,0 927.38,-74"/>
<text text-anchor="middle" x="875.12" y="-56.7" font-family="Helvetica,sans-Serif" font-size="14.00">gini = 0.165</text>
<text text-anchor="middle" x="875.12" y="-40.2" font-family="Helvetica,sans-Serif" font-size="14.00">samples = 11</text>
<text text-anchor="middle" x="875.12" y="-23.7" font-family="Helvetica,sans-Serif" font-size="14.00">value = [1, 10]</text>
<text text-anchor="middle" x="875.12" y="-7.2" font-family="Helvetica,sans-Serif" font-size="14.00">class = 1</text>
</g>
<!-- 13&#45;&gt;15 -->
<g id="edge15" class="edge">
<title>13&#45;&gt;15</title>
<path fill="none" stroke="black" d="M802.41,-109.64C811.47,-100.72 820.98,-91.34 830.03,-82.43"/>
<polygon fill="black" stroke="black" points="832.44,-84.97 837.11,-75.46 827.53,-79.98 832.44,-84.97"/>
</g>
<!-- 17 -->
<g id="node18" class="node">
<title>17</title>
<polygon fill="#e6843d" stroke="black" points="983.5,-327 870.75,-327 870.75,-236.5 983.5,-236.5 983.5,-327"/>
<text text-anchor="middle" x="927.12" y="-309.7" font-family="Helvetica,sans-Serif" font-size="14.00">trtbps &lt;= 0.207</text>
<text text-anchor="middle" x="927.12" y="-293.2" font-family="Helvetica,sans-Serif" font-size="14.00">gini = 0.043</text>
<text text-anchor="middle" x="927.12" y="-276.7" font-family="Helvetica,sans-Serif" font-size="14.00">samples = 46</text>
<text text-anchor="middle" x="927.12" y="-260.2" font-family="Helvetica,sans-Serif" font-size="14.00">value = [45, 1]</text>
<text text-anchor="middle" x="927.12" y="-243.7" font-family="Helvetica,sans-Serif" font-size="14.00">class = 0</text>
</g>
<!-- 16&#45;&gt;17 -->
<g id="edge17" class="edge">
<title>16&#45;&gt;17</title>
<path fill="none" stroke="black" d="M927.12,-362.65C927.12,-354.97 927.12,-346.89 927.12,-338.94"/>
<polygon fill="black" stroke="black" points="930.63,-338.97 927.13,-328.97 923.63,-338.97 930.63,-338.97"/>
</g>
<!-- 20 -->
<g id="node21" class="node">
<title>20</title>
<polygon fill="#f9e4d5" stroke="black" points="1167.5,-327 1054.75,-327 1054.75,-236.5 1167.5,-236.5 1167.5,-327"/>
<text text-anchor="middle" x="1111.12" y="-309.7" font-family="Helvetica,sans-Serif" font-size="14.00">chol &lt;= 0.332</text>
<text text-anchor="middle" x="1111.12" y="-293.2" font-family="Helvetica,sans-Serif" font-size="14.00">gini = 0.493</text>
<text text-anchor="middle" x="1111.12" y="-276.7" font-family="Helvetica,sans-Serif" font-size="14.00">samples = 25</text>
<text text-anchor="middle" x="1111.12" y="-260.2" font-family="Helvetica,sans-Serif" font-size="14.00">value = [14, 11]</text>
<text text-anchor="middle" x="1111.12" y="-243.7" font-family="Helvetica,sans-Serif" font-size="14.00">class = 0</text>
</g>
<!-- 16&#45;&gt;20 -->
<g id="edge20" class="edge">
<title>16&#45;&gt;20</title>
<path fill="none" stroke="black" d="M983.83,-368.88C1003.16,-355.8 1024.93,-341.07 1044.93,-327.54"/>
<polygon fill="black" stroke="black" points="1046.71,-330.56 1053.03,-322.06 1042.79,-324.76 1046.71,-330.56"/>
</g>
<!-- 18 -->
<g id="node19" class="node">
<title>18</title>
<polygon fill="#eca06a" stroke="black" points="923.25,-192.25 827,-192.25 827,-118.25 923.25,-118.25 923.25,-192.25"/>
<text text-anchor="middle" x="875.12" y="-174.95" font-family="Helvetica,sans-Serif" font-size="14.00">gini = 0.32</text>
<text text-anchor="middle" x="875.12" y="-158.45" font-family="Helvetica,sans-Serif" font-size="14.00">samples = 5</text>
<text text-anchor="middle" x="875.12" y="-141.95" font-family="Helvetica,sans-Serif" font-size="14.00">value = [4, 1]</text>
<text text-anchor="middle" x="875.12" y="-125.45" font-family="Helvetica,sans-Serif" font-size="14.00">class = 0</text>
</g>
<!-- 17&#45;&gt;18 -->
<g id="edge18" class="edge">
<title>17&#45;&gt;18</title>
<path fill="none" stroke="black" d="M908.5,-236.15C904,-225.37 899.17,-213.82 894.63,-202.95"/>
<polygon fill="black" stroke="black" points="897.87,-201.63 890.79,-193.75 891.41,-204.33 897.87,-201.63"/>
</g>
<!-- 19 -->
<g id="node20" class="node">
<title>19</title>
<polygon fill="#e58139" stroke="black" points="1045.38,-192.25 940.88,-192.25 940.88,-118.25 1045.38,-118.25 1045.38,-192.25"/>
<text text-anchor="middle" x="993.12" y="-174.95" font-family="Helvetica,sans-Serif" font-size="14.00">gini = 0.0</text>
<text text-anchor="middle" x="993.12" y="-158.45" font-family="Helvetica,sans-Serif" font-size="14.00">samples = 41</text>
<text text-anchor="middle" x="993.12" y="-141.95" font-family="Helvetica,sans-Serif" font-size="14.00">value = [41, 0]</text>
<text text-anchor="middle" x="993.12" y="-125.45" font-family="Helvetica,sans-Serif" font-size="14.00">class = 0</text>
</g>
<!-- 17&#45;&gt;19 -->
<g id="edge19" class="edge">
<title>17&#45;&gt;19</title>
<path fill="none" stroke="black" d="M950.77,-236.15C956.6,-225.15 962.86,-213.34 968.73,-202.27"/>
<polygon fill="black" stroke="black" points="971.68,-204.17 973.28,-193.69 965.5,-200.89 971.68,-204.17"/>
</g>
<!-- 21 -->
<g id="node22" class="node">
<title>21</title>
<polygon fill="#61b1ea" stroke="black" points="1159.25,-192.25 1063,-192.25 1063,-118.25 1159.25,-118.25 1159.25,-192.25"/>
<text text-anchor="middle" x="1111.12" y="-174.95" font-family="Helvetica,sans-Serif" font-size="14.00">gini = 0.278</text>
<text text-anchor="middle" x="1111.12" y="-158.45" font-family="Helvetica,sans-Serif" font-size="14.00">samples = 6</text>
<text text-anchor="middle" x="1111.12" y="-141.95" font-family="Helvetica,sans-Serif" font-size="14.00">value = [1, 5]</text>
<text text-anchor="middle" x="1111.12" y="-125.45" font-family="Helvetica,sans-Serif" font-size="14.00">class = 1</text>
</g>
<!-- 20&#45;&gt;21 -->
<g id="edge21" class="edge">
<title>20&#45;&gt;21</title>
<path fill="none" stroke="black" d="M1111.12,-236.15C1111.12,-225.6 1111.12,-214.31 1111.12,-203.63"/>
<polygon fill="black" stroke="black" points="1114.63,-203.87 1111.13,-193.87 1107.63,-203.87 1114.63,-203.87"/>
</g>
<!-- 22 -->
<g id="node23" class="node">
<title>22</title>
<polygon fill="#f1bb94" stroke="black" points="1304.62,-200.5 1177.62,-200.5 1177.62,-110 1304.62,-110 1304.62,-200.5"/>
<text text-anchor="middle" x="1241.12" y="-183.2" font-family="Helvetica,sans-Serif" font-size="14.00">oldpeak &lt;= 0.177</text>
<text text-anchor="middle" x="1241.12" y="-166.7" font-family="Helvetica,sans-Serif" font-size="14.00">gini = 0.432</text>
<text text-anchor="middle" x="1241.12" y="-150.2" font-family="Helvetica,sans-Serif" font-size="14.00">samples = 19</text>
<text text-anchor="middle" x="1241.12" y="-133.7" font-family="Helvetica,sans-Serif" font-size="14.00">value = [13, 6]</text>
<text text-anchor="middle" x="1241.12" y="-117.2" font-family="Helvetica,sans-Serif" font-size="14.00">class = 0</text>
</g>
<!-- 20&#45;&gt;22 -->
<g id="edge22" class="edge">
<title>20&#45;&gt;22</title>
<path fill="none" stroke="black" d="M1157.69,-236.15C1166.93,-227.3 1176.72,-217.93 1186.2,-208.85"/>
<polygon fill="black" stroke="black" points="1188.55,-211.44 1193.35,-202 1183.71,-206.39 1188.55,-211.44"/>
</g>
<!-- 23 -->
<g id="node24" class="node">
<title>23</title>
<polygon fill="#ffffff" stroke="black" points="1231.25,-74 1135,-74 1135,0 1231.25,0 1231.25,-74"/>
<text text-anchor="middle" x="1183.12" y="-56.7" font-family="Helvetica,sans-Serif" font-size="14.00">gini = 0.5</text>
<text text-anchor="middle" x="1183.12" y="-40.2" font-family="Helvetica,sans-Serif" font-size="14.00">samples = 8</text>
<text text-anchor="middle" x="1183.12" y="-23.7" font-family="Helvetica,sans-Serif" font-size="14.00">value = [4, 4]</text>
<text text-anchor="middle" x="1183.12" y="-7.2" font-family="Helvetica,sans-Serif" font-size="14.00">class = 0</text>
</g>
<!-- 22&#45;&gt;23 -->
<g id="edge23" class="edge">
<title>22&#45;&gt;23</title>
<path fill="none" stroke="black" d="M1218.87,-109.64C1214.78,-101.44 1210.5,-92.87 1206.38,-84.62"/>
<polygon fill="black" stroke="black" points="1209.55,-83.13 1201.96,-75.75 1203.29,-86.26 1209.55,-83.13"/>
</g>
<!-- 24 -->
<g id="node25" class="node">
<title>24</title>
<polygon fill="#eb9d65" stroke="black" points="1351.25,-74 1249,-74 1249,0 1351.25,0 1351.25,-74"/>
<text text-anchor="middle" x="1300.12" y="-56.7" font-family="Helvetica,sans-Serif" font-size="14.00">gini = 0.298</text>
<text text-anchor="middle" x="1300.12" y="-40.2" font-family="Helvetica,sans-Serif" font-size="14.00">samples = 11</text>
<text text-anchor="middle" x="1300.12" y="-23.7" font-family="Helvetica,sans-Serif" font-size="14.00">value = [9, 2]</text>
<text text-anchor="middle" x="1300.12" y="-7.2" font-family="Helvetica,sans-Serif" font-size="14.00">class = 0</text>
</g>
<!-- 22&#45;&gt;24 -->
<g id="edge24" class="edge">
<title>22&#45;&gt;24</title>
<path fill="none" stroke="black" d="M1263.77,-109.64C1267.93,-101.44 1272.28,-92.87 1276.46,-84.62"/>
<polygon fill="black" stroke="black" points="1279.56,-86.24 1280.97,-75.74 1273.32,-83.08 1279.56,-86.24"/>
</g>
</g>
</svg>
